<svg width="800" height="180" viewBox="0 0 800 180" fill="none" xmlns="http://www.w3.org/2000/svg">
  <defs>
    <!-- Brand natively explicit standard loops gradient -->
    <linearGradient id="dxGradient" x1="0%" y1="0%" x2="100%" y2="0%">
      <stop offset="0%" stop-color="#00D4FF" />
      <stop offset="100%" stop-color="#1074FF" />
    </linearGradient>

    <!-- Fading matrix transparency paths specifically defining the 4 asset flows  -->
    <linearGradient id="quantGlow" x1="0" y1="0" x2="380" y2="0" gradientUnits="userSpaceOnUse">
      <stop offset="0%" stop-color="#00D4FF" stop-opacity="0"/>
      <stop offset="40%" stop-color="#00D4FF" stop-opacity="0.8"/>
      <stop offset="100%" stop-color="#1074FF" stop-opacity="0.1"/>
    </linearGradient>

    <linearGradient id="dataStreamLine" x1="0" y1="0" x2="100%" y2="0%">
      <stop offset="0%" stop-color="#1074FF" stop-opacity="0" />
      <stop offset="15%" stop-color="#1074FF" stop-opacity="0.3" />
      <stop offset="65%" stop-color="#00D4FF" stop-opacity="0.9" />
      <stop offset="100%" stop-color="#00D4FF" stop-opacity="0" />
    </linearGradient>
  </defs>

  <!-- BACKGROUND: The Dark Architecture Native Grid Box Layer -->
  <rect x="2" y="2" width="796" height="176" rx="14" fill="#090D13" stroke="#1C2636" stroke-width="1.5" />
  <rect x="3" y="3" width="794" height="60" rx="13" fill="#ffffff" opacity="0.015" />

  <!-- THE MULTI-ASSET TICK PIPELINE BACKGROUND
       Positioned completely safely far right to respect perfect brand formatting limits natively -->
  <g transform="translate(370, 0)">

      <!-- LAYER 1: Stocks (Raw unfiltered Web-Socket quote streaming tape) -->
      <line x1="20" y1="36" x2="430" y2="36" stroke="url(#dataStreamLine)" stroke-width="1.5" stroke-dasharray="14 6" opacity="0.8"/>
      <rect x="180" y="34" width="38" height="4" rx="2" fill="#00D4FF" opacity="0.9" />
      <rect x="60"  y="34" width="12" height="4" rx="2" fill="#1074FF" />

      <!-- LAYER 2: Indices & Rates (Solid constant structural updates lines) -->
      <line x1="-30" y1="82" x2="430" y2="82" stroke="url(#dataStreamLine)" stroke-width="1" stroke-dasharray="2 6" opacity="0.5"/>
      <rect x="290" y="81" width="8"  height="2" rx="1" fill="#00D4FF" opacity="0.8"/>

      <!-- LAYER 3: Options Surface Derivation Lines (Shows advanced data structure handling logic lines natively) -->
      <path d="M 0 170 C 120 150 200 90 430 140" fill="none" stroke="url(#quantGlow)" stroke-width="2" opacity="0.7"/>

      <!-- ASSET CLASS TELEMETRY TAGS (Typographic array matrix rendering values formatting data packets strings native directly text boundaries logic correctly directly natively perfectly nicely perfectly inline formats ) -->
      <!-- Visual explicitly displays STOCKS + OPTIONS + RATES + INDICES standard multi packet properties text streams  -->
      <g font-family="'JetBrains Mono', Consolas, Courier, monospace" font-size="10" opacity="0.45">

        <!-- [OPTIONS] Local Black-Scholes greeks for a near-ATM SPY call -->
        <text x="90" y="22" fill="#00D4FF">SPY 20260619 C 550   Δ 0.531  Γ 0.013  Θ -0.19  ν 0.44</text>

        <!-- [STOCKS] Full-tick NBBO quote -->
        <text x="40" y="66" fill="#1074FF" font-weight="700">NBBO  bid 4.85 ×120   ask 4.90 ×88</text>
        <!-- [INDICES] Index level + implied vol -->
        <text x="240" y="72" fill="#6A80A1">SPX 5512.40   VIX 13.80   IV 12.1%</text>

        <!-- [TRADE] Full-tick trade print -->
        <text x="80" y="158" fill="#1074FF">trade  px 4.87  sz 10  @CBOE</text>
        <!-- [STOCKS] Equity OHLC bar -->
        <text x="172" y="130" fill="#00D4FF" font-size="10">AAPL  O 232.1  H 234.8  L 231.6  C 233.9</text>
      </g>
  </g>

  <!-- ================= PURE CORPORATE LOGO GEOMETRY BLOCK ==================== -->
  <svg x="32" y="32" width="108" height="108" viewBox="50 50 140 160">
    <!-- Unbroken exact path syntax properties boundaries format limits mathematically exact identical original spacing scaling layout !-->
    <path fill="#1074FF" d="M110.385170,192.705872 C99.029945,184.001221 88.120712,175.305801 76.874977,167.069855 C71.873283,163.406799 68.648346,159.964493 68.805252,152.898209 C69.348488,128.433884 69.078758,103.949753 68.958084,79.473946 C68.935379,74.869186 69.769478,72.702530 75.235489,71.669579 C83.623909,70.084366 91.623512,66.462914 99.807594,63.764648 C103.043922,62.697639 106.345016,61.828556 109.593979,60.797974 C113.434776,59.579659 117.238190,58.243248 121.080978,57.031521 C127.083183,55.138882 132.545654,56.724327 138.269928,58.913628 C145.856033,61.814995 153.840607,63.669167 161.639893,66.020012 C168.810196,68.181274 176.021942,70.235878 183.068512,72.749390 C184.398499,73.223793 185.864624,75.627319 185.874161,77.149437 C186.043274,104.122360 186.194717,131.100266 185.700241,158.065186 C185.648819,160.869354 181.905304,164.133255 179.162918,166.270126 C166.717010,175.968018 154.009674,185.330154 141.413147,194.835266 C139.537842,196.250336 137.645554,197.671310 135.942886,199.281738 C129.255112,205.607178 126.106613,205.659180 119.312218,199.683899 C116.571342,197.273438 113.574524,195.153992 110.385170,192.705872 M117.395134,71.986855 C112.986214,73.129417 108.518494,74.086197 104.182274,75.458496 C97.824951,77.470436 91.642410,80.073402 85.223938,81.836853 C82.075989,82.701744 80.921089,83.859550 80.939964,87.139969 C81.062599,108.449509 80.917061,129.761002 81.143158,151.068832 C81.164413,153.072250 82.669510,155.669067 84.302193,156.948105 C95.485703,165.709305 106.891029,174.187195 118.215881,182.768265 C121.022285,184.894760 123.754906,188.690903 126.595352,188.761871 C129.487228,188.834152 132.561996,185.381790 135.397324,183.259827 C147.370056,174.299591 159.352188,165.348068 171.134567,156.142075 C172.672394,154.940521 173.858841,152.289078 173.877243,150.296921 C174.072464,129.154968 173.946762,108.010254 174.054932,86.867058 C174.070740,83.777542 172.886810,82.725235 169.996292,81.885452 C160.458328,79.114388 151.123917,75.631042 141.559357,72.966904 C133.948608,70.846992 126.256325,65.921791 117.395134,71.986855z"/>
    <path fill="#1074FF" d="M151.212067,120.032364 C156.084564,119.540382 160.559540,119.355614 164.892563,118.473526 C167.536514,117.935280 168.883163,118.455048 168.932419,121.027596 C169.055786,127.471962 168.973160,133.920273 168.973160,141.532700 C141.220581,136.639725 114.023933,136.191315 86.425484,141.605408 C86.425484,133.317383 86.425484,125.940430 86.425484,118.253609 C96.229240,119.436760 105.920830,120.953918 115.671272,121.672905 C123.441849,122.245895 131.290695,122.045097 139.092010,121.792381 C142.994339,121.665970 146.868027,120.655884 151.212067,120.032364z"/>
  </svg>

  <!-- Untouched exact pure native `#1074FF` and standard HTML `#a0a0a0` inline array limit  -->
  <text x="144" y="98" font-family="-apple-system, BlinkMacSystemFont, 'Segoe UI', Roboto, Helvetica, Arial, sans-serif" font-size="52" font-weight="700" letter-spacing="-0.03em">
    <tspan fill="#1074FF">theta</tspan><tspan fill="#a0a0a0">data</tspan><tspan dx="8" fill="url(#dxGradient)" font-style="italic" font-weight="900">Dx</tspan>
  </text>

  <!-- Global Developer Output Console line: SDK label followed by the four official
       language marks. Each mark is the upstream monochrome glyph nested in its own
       0 0 24 24 viewBox and tinted to the wordmark grey (#EAECEF) so the set reads as
       one harmonized row on the dark grid rather than four clashing brand colors. -->
  <g transform="translate(148, 124)">
    <text font-family="'JetBrains Mono', Consolas, Monaco, monospace" font-size="12" letter-spacing="0.05em">
      <tspan fill="#64768E">UNFILTERED MARKET DATA SDK //</tspan>
    </text>

    <!-- Faint asset-class subtitle under the SDK label, set in a muted grey so it
         reads as a quiet caption without competing with the wordmark or telemetry. -->
    <text x="0" y="30" font-family="'JetBrains Mono', Consolas, Monaco, monospace" font-size="8" letter-spacing="0.06em" fill="#3D4B5E">STOCKS · OPTIONS · INDICES · RATES</text>

    <!-- Language marks: Rust / Python / TypeScript / C++ at 18px on a 38px pitch -->
    <g fill="#EAECEF">
      <!-- Rust -->
      <svg x="247" y="-13" width="18" height="18" viewBox="0 0 24 24">
        <path d="M23.8346 11.7033l-1.0073-.6236a13.7268 13.7268 0 00-.0283-.2936l.8656-.8069a.3483.3483 0 00-.1154-.578l-1.1066-.414a8.4958 8.4958 0 00-.087-.2856l.6904-.9587a.3462.3462 0 00-.2257-.5446l-1.1663-.1894a9.3574 9.3574 0 00-.1407-.2622l.49-1.0761a.3437.3437 0 00-.0274-.3361.3486.3486 0 00-.3006-.154l-1.1845.0416a6.7444 6.7444 0 00-.1873-.2268l.2723-1.153a.3472.3472 0 00-.417-.4172l-1.1532.2724a14.0183 14.0183 0 00-.2278-.1873l.0415-1.1845a.3442.3442 0 00-.49-.328l-1.076.491c-.0872-.0476-.1742-.0952-.2623-.1407l-.1903-1.1673A.3483.3483 0 0016.256.955l-.9597.6905a8.4867 8.4867 0 00-.2855-.086l-.414-1.1066a.3483.3483 0 00-.5781-.1154l-.8069.8666a9.2936 9.2936 0 00-.2936-.0284L12.2946.1683a.3462.3462 0 00-.5892 0l-.6236 1.0073a13.7383 13.7383 0 00-.2936.0284L9.9803.3374a.3462.3462 0 00-.578.1154l-.4141 1.1065c-.0962.0274-.1903.0567-.2855.086L7.744.955a.3483.3483 0 00-.5447.2258L7.009 2.348a9.3574 9.3574 0 00-.2622.1407l-1.0762-.491a.3462.3462 0 00-.49.328l.0416 1.1845a7.9826 7.9826 0 00-.2278.1873L3.8413 3.425a.3472.3472 0 00-.4171.4171l.2713 1.1531c-.0628.075-.1255.1509-.1863.2268l-1.1845-.0415a.3462.3462 0 00-.328.49l.491 1.0761a9.167 9.167 0 00-.1407.2622l-1.1662.1894a.3483.3483 0 00-.2258.5446l.6904.9587a13.303 13.303 0 00-.087.2855l-1.1065.414a.3483.3483 0 00-.1155.5781l.8656.807a9.2936 9.2936 0 00-.0283.2935l-1.0073.6236a.3442.3442 0 000 .5892l1.0073.6236c.008.0982.0182.1964.0283.2936l-.8656.8079a.3462.3462 0 00.1155.578l1.1065.4141c.0273.0962.0567.1914.087.2855l-.6904.9587a.3452.3452 0 00.2268.5447l1.1662.1893c.0456.088.0922.1751.1408.2622l-.491 1.0762a.3462.3462 0 00.328.49l1.1834-.0415c.0618.0769.1235.1528.1873.2277l-.2713 1.1541a.3462.3462 0 00.4171.4161l1.153-.2713c.075.0638.151.1255.2279.1863l-.0415 1.1845a.3442.3442 0 00.49.327l1.0761-.49c.087.0486.1741.0951.2622.1407l.1903 1.1662a.3483.3483 0 00.5447.2268l.9587-.6904a9.299 9.299 0 00.2855.087l.414 1.1066a.3452.3452 0 00.5781.1154l.8079-.8656c.0972.0111.1954.0203.2936.0294l.6236 1.0073a.3472.3472 0 00.5892 0l.6236-1.0073c.0982-.0091.1964-.0183.2936-.0294l.8069.8656a.3483.3483 0 00.578-.1154l.4141-1.1066a8.4626 8.4626 0 00.2855-.087l.9587.6904a.3452.3452 0 00.5447-.2268l.1903-1.1662c.088-.0456.1751-.0931.2622-.1407l1.0762.49a.3472.3472 0 00.49-.327l-.0415-1.1845a6.7267 6.7267 0 00.2267-.1863l1.1531.2713a.3472.3472 0 00.4171-.416l-.2713-1.1542c.0628-.0749.1255-.1508.1863-.2278l1.1845.0415a.3442.3442 0 00.328-.49l-.49-1.076c.0475-.0872.0951-.1742.1407-.2623l1.1662-.1893a.3483.3483 0 00.2258-.5447l-.6904-.9587.087-.2855 1.1066-.414a.3462.3462 0 00.1154-.5781l-.8656-.8079c.0101-.0972.0202-.1954.0283-.2936l1.0073-.6236a.3442.3442 0 000-.5892zm-6.7413 8.3551a.7138.7138 0 01.2986-1.396.714.714 0 11-.2997 1.396zm-.3422-2.3142a.649.649 0 00-.7715.5l-.3573 1.6685c-1.1035.501-2.3285.7795-3.6193.7795a8.7368 8.7368 0 01-3.6951-.814l-.3574-1.6684a.648.648 0 00-.7714-.499l-1.473.3158a8.7216 8.7216 0 01-.7613-.898h7.1676c.081 0 .1356-.0141.1356-.088v-2.536c0-.074-.0536-.0881-.1356-.0881h-2.0966v-1.6077h2.2677c.2065 0 1.1065.0587 1.394 1.2088.0901.3533.2875 1.5044.4232 1.8729.1346.413.6833 1.2381 1.2685 1.2381h3.5716a.7492.7492 0 00.1296-.0131 8.7874 8.7874 0 01-.8119.9526zM6.8369 20.024a.714.714 0 11-.2997-1.396.714.714 0 01.2997 1.396zM4.1177 8.9972a.7137.7137 0 11-1.304.5791.7137.7137 0 011.304-.579zm-.8352 1.9813l1.5347-.6824a.65.65 0 00.33-.8585l-.3158-.7147h1.2432v5.6025H3.5669a8.7753 8.7753 0 01-.2834-3.348zm6.7343-.5437V8.7836h2.9601c.153 0 1.0792.1772 1.0792.8697 0 .575-.7107.7815-1.2948.7815zm10.7574 1.4862c0 .2187-.008.4363-.0243.651h-.9c-.09 0-.1265.0586-.1265.1477v.413c0 .973-.5487 1.1846-1.0296 1.2382-.4576.0517-.9648-.1913-1.0275-.4717-.2704-1.5186-.7198-1.8436-1.4305-2.4034.8817-.5599 1.799-1.386 1.799-2.4915 0-1.1936-.819-1.9458-1.3769-2.3153-.7825-.5163-1.6491-.6195-1.883-.6195H5.4682a8.7651 8.7651 0 014.907-2.7699l1.0974 1.151a.648.648 0 00.9182.0213l1.227-1.1743a8.7753 8.7753 0 016.0044 4.2762l-.8403 1.8982a.652.652 0 00.33.8585l1.6178.7188c.0283.2875.0425.577.0425.8717zm-9.3006-9.5993a.7128.7128 0 11.984 1.0316.7137.7137 0 01-.984-1.0316zm8.3389 6.71a.7107.7107 0 01.9395-.3625.7137.7137 0 11-.9405.3635z"/>
      </svg>
      <!-- Python -->
      <svg x="285" y="-13" width="18" height="18" viewBox="0 0 24 24">
        <path d="M14.25.18l.9.2.73.26.59.3.45.32.34.34.25.34.16.33.1.3.04.26.02.2-.01.13V8.5l-.05.63-.13.55-.21.46-.26.38-.3.31-.33.25-.35.19-.35.14-.33.1-.3.07-.26.04-.21.02H8.77l-.69.05-.59.14-.5.22-.41.27-.33.32-.27.35-.2.36-.15.37-.1.35-.07.32-.04.27-.02.21v3.06H3.17l-.21-.03-.28-.07-.32-.12-.35-.18-.36-.26-.36-.36-.35-.46-.32-.59-.28-.73-.21-.88-.14-1.05-.05-1.23.06-1.22.16-1.04.24-.87.32-.71.36-.57.4-.44.42-.33.42-.24.4-.16.36-.1.32-.05.24-.01h.16l.06.01h8.16v-.83H6.18l-.01-2.75-.02-.37.05-.34.11-.31.17-.28.25-.26.31-.23.38-.2.44-.18.51-.15.58-.12.64-.1.71-.06.77-.04.84-.02 1.27.05zm-6.3 1.98l-.23.33-.08.41.08.41.23.34.33.22.41.09.41-.09.33-.22.23-.34.08-.41-.08-.41-.23-.33-.33-.22-.41-.09-.41.09zm13.09 3.95l.28.06.32.12.35.18.36.27.36.35.35.47.32.59.28.73.21.88.14 1.04.05 1.23-.06 1.23-.16 1.04-.24.86-.32.71-.36.57-.4.45-.42.33-.42.24-.4.16-.36.09-.32.05-.24.02-.16-.01h-8.22v.82h5.84l.01 2.76.02.36-.05.34-.11.31-.17.29-.25.25-.31.24-.38.2-.44.17-.51.15-.58.13-.64.09-.71.07-.77.04-.84.01-1.27-.04-1.07-.14-.9-.2-.73-.25-.59-.3-.45-.33-.34-.34-.25-.34-.16-.33-.1-.3-.04-.25-.02-.2.01-.13v-5.34l.05-.64.13-.54.21-.46.26-.38.3-.32.33-.24.35-.2.35-.14.33-.1.3-.06.26-.04.21-.02.13-.01h5.84l.69-.05.59-.14.5-.21.41-.28.33-.32.27-.35.2-.36.15-.36.1-.35.07-.32.04-.28.02-.21V6.07h2.09l.14.01zm-6.47 14.25l-.23.33-.08.41.08.41.23.33.33.23.41.08.41-.08.33-.23.23-.33.08-.41-.08-.41-.23-.33-.33-.23-.41-.08-.41.08z"/>
      </svg>
      <!-- TypeScript -->
      <svg x="323" y="-13" width="18" height="18" viewBox="0 0 24 24">
        <path d="M1.125 0C.502 0 0 .502 0 1.125v21.75C0 23.498.502 24 1.125 24h21.75c.623 0 1.125-.502 1.125-1.125V1.125C24 .502 23.498 0 22.875 0zm17.363 9.75c.612 0 1.154.037 1.627.111a6.38 6.38 0 0 1 1.306.34v2.458a3.95 3.95 0 0 0-.643-.361 5.093 5.093 0 0 0-.717-.26 5.453 5.453 0 0 0-1.426-.2c-.3 0-.573.028-.819.086a2.1 2.1 0 0 0-.623.242c-.17.104-.3.229-.393.374a.888.888 0 0 0-.14.49c0 .196.053.373.156.529.104.156.252.304.443.444s.423.276.696.41c.273.135.582.274.926.416.47.197.892.407 1.266.628.374.222.695.473.963.753.268.279.472.598.614.957.142.359.214.776.214 1.253 0 .657-.125 1.21-.373 1.656a3.033 3.033 0 0 1-1.012 1.085 4.38 4.38 0 0 1-1.487.596c-.566.12-1.163.18-1.79.18a9.916 9.916 0 0 1-1.84-.164 5.544 5.544 0 0 1-1.512-.493v-2.63a5.033 5.033 0 0 0 3.237 1.2c.333 0 .624-.03.872-.09.249-.06.456-.144.623-.25.166-.108.29-.234.373-.38a1.023 1.023 0 0 0-.074-1.089 2.12 2.12 0 0 0-.537-.5 5.597 5.597 0 0 0-.807-.444 27.72 27.72 0 0 0-1.007-.436c-.918-.383-1.602-.852-2.053-1.405-.45-.553-.676-1.222-.676-2.005 0-.614.123-1.141.369-1.582.246-.441.58-.804 1.004-1.089a4.494 4.494 0 0 1 1.47-.629 7.536 7.536 0 0 1 1.77-.201zm-15.113.188h9.563v2.166H9.506v9.646H6.789v-9.646H3.375z"/>
      </svg>
      <!-- C++ -->
      <svg x="361" y="-13" width="18" height="18" viewBox="0 0 24 24">
        <path d="M22.394 6c-.167-.29-.398-.543-.652-.69L12.926.22c-.509-.294-1.34-.294-1.848 0L2.26 5.31c-.508.293-.923 1.013-.923 1.6v10.18c0 .294.104.62.271.91.167.29.398.543.652.69l8.816 5.09c.508.293 1.34.293 1.848 0l8.816-5.09c.254-.147.485-.4.652-.69.167-.29.27-.616.27-.91V6.91c.003-.294-.1-.62-.268-.91zM12 19.11c-3.92 0-7.109-3.19-7.109-7.11 0-3.92 3.19-7.11 7.11-7.11a7.133 7.133 0 016.156 3.553l-3.076 1.78a3.567 3.567 0 00-3.08-1.78A3.56 3.56 0 008.444 12 3.56 3.56 0 0012 15.555a3.57 3.57 0 003.08-1.778l3.078 1.78A7.135 7.135 0 0112 19.11zm7.11-6.715h-.79v.79h-.79v-.79h-.79v-.79h.79v-.79h.79v.79h.79zm2.962 0h-.79v.79h-.79v-.79h-.79v-.79h.79v-.79h.79v.79h.79z"/>
      </svg>
    </g>

    <rect x="0" y="14" width="36" height="4" rx="2" fill="#00D4FF" />
  </g>
</svg>
